<svg xmlns="http://www.w3.org/2000/svg" viewBox="0 0 1024 1024">
  <g id="logo-mark">
    <!-- Telomoyo ridge and its winding road to the summit. -->
    <path
      d="M176 548 374 292l126 142 148-218 200 332"
      fill="none"
      stroke="#fff"
      stroke-linecap="round"
      stroke-linejoin="round"
      stroke-width="58"
    />
    <circle cx="770" cy="258" r="42" fill="#ff8b00" />
    <path
      d="M650 286c-74 76 40 116-44 184-60 48-154 66-232 142"
      fill="none"
      stroke="#ff8b00"
      stroke-linecap="round"
      stroke-width="58"
    />

    <!-- A compact side-view scooter climbing the mountain road. -->
    <g fill="none" stroke="#fff" stroke-linecap="round" stroke-linejoin="round">
      <circle cx="360" cy="724" r="70" stroke-width="34" />
      <circle cx="690" cy="724" r="70" stroke-width="34" />
      <path
        d="M414 700h86c30 0 54-13 70-38l42-67h70l24 102"
        stroke-width="54"
      />
      <path d="m606 595-38-84h-54" stroke-width="38" />
      <path d="M548 510h112" stroke-width="34" />
      <path d="M424 675 474 570h110" stroke-width="54" />
      <path d="M456 552h126" stroke-width="42" />
    </g>
    <circle cx="670" cy="498" r="25" fill="#fff" />
  </g>
</svg>
